# xmcd
#
# Track frame offsets:
#	180
#	21316
#	32860
#	49454
#	69783
#	85297
#	94470
#	109837
#	122707
#	136895
#
# Disc length: 2011 seconds
#
# Revision: 0
# Processed by: cddbd v1.5.2PL0 Copyright (c) Steve Scherf et al.
# Submitted via: audiograbber 1.83.01
#
DISCID=8b07d90a
DTITLE=Various Artist - New Country - Volume 4 - Number 4
DYEAR=1997
DGENRE=Country
TTITLE0=Gary Allan - Wake Up Screaming
TTITLE1=Wanda Jackson - I May Never Get To Heaven
TTITLE2=Front Range - Under The Influence Of Love
TTITLE3=Diamond Rio - Walking In Jerusalem
TTITLE4=The Burns Sisters - Dance Upon This Earth
TTITLE5=Tex Williams and His Western Caravan - The Campbells Are Coming
TTITLE6=The Vidalias - Thunder And Rain
TTITLE7=Richard Greene and The Grass Is Greener - With Body And Soul
TTITLE8=Rick Shea - Sycamore Grove
TTITLE9=Tony Furtado - Waterslide
EXTD=
EXTT0=
EXTT1=
EXTT2=
EXTT3=
EXTT4=
EXTT5=
EXTT6=
EXTT7=
EXTT8=
EXTT9=
PLAYORDER=
